# xmcd CD database file
#
# Track frame offsets:
#	150
#	11016
#	22299
#	32437
#	42878
#	55559
#	66782
#	76980
#	88640
#	98275
#	109458
#	126209
#	133860
#	145385
#
# Disc length: 2093 seconds
#
# Revision: 6
# Processed by: cddbd v1.5.2PL0 Copyright (c) Steve Scherf et al.
# Submitted via: CDex 1.70beta2
#
DISCID=b7082b0e
DTITLE=Country Gold  - Country Gold Volume2
DYEAR=1999
DGENRE=Country
TTITLE0=It was'nt God who made honky Tonk Angels/Dolly Parton
TTITLE1=Sally was a good old girl/ Waylon Jennings
TTITLE2=KAW-Liga/Barbara Mandrell
TTITLE3=Honky Tonk Merry Go Round/Patsy Cline
TTITLE4=It's four in the Morning/Faron Young
TTITLE5=Blue Eyes Crying in the Rain/Roy Drusky
TTITLE6=Daddy sang Bass/Carl Perkins
TTITLE7=Mule Train/ Frankie Laine
TTITLE8=Release Me/Barbara Mandrell
TTITLE9=9,999,999 Tears/Razzy Bailey
TTITLE10=I let my mind wander/Willie Naelson
TTITLE11=Hello Walls/Roy Drusky
TTITLE12=I've Loved and lost again/Patsy Cline
TTITLE13=Wasted Days And Wasted Nights - Freddy Fender
EXTD=YEAR: 1999
EXTT0=
EXTT1=
EXTT2=
EXTT3=
EXTT4=
EXTT5=
EXTT6=
EXTT7=
EXTT8=
EXTT9=
EXTT10=
EXTT11=
EXTT12=
EXTT13=
PLAYORDER=
